<?xml version="1.0" encoding="UTF-8"?>
<svg width="1300" height="1040" xmlns="http://www.w3.org/2000/svg">
  <defs>
    <style>
      .registry  { fill: #E3F2FD; stroke: #1976D2; stroke-width: 2; }
      .shell     { fill: #FFFDE7; stroke: #F57F17; stroke-width: 2; }
      .admin     { fill: #FCE4EC; stroke: #C62828; stroke-width: 2; }
      .module    { fill: #F3E5F5; stroke: #7B1FA2; stroke-width: 2; }
      .react-mod { fill: #E8EAF6; stroke: #283593; stroke-width: 2; }
      .gateway   { fill: #E0F2F1; stroke: #00695C; stroke-width: 3; }
      .service   { fill: #E8F5E9; stroke: #388E3C; stroke-width: 2; }
      .reg-svc   { fill: #E3F2FD; stroke: #1976D2; stroke-width: 2; }
      .database  { fill: #FFE0B2; stroke: #E65100; stroke-width: 2; }
      .text-bold  { font-weight: 600; font-family: 'Segoe UI', Arial, sans-serif; font-size: 15px; }
      .text-title { font-weight: 700; font-family: 'Segoe UI', Arial, sans-serif; font-size: 13px; }
      .text-small { font-family: 'Segoe UI', Arial, sans-serif; font-size: 12px; }
      .text-tiny  { font-family: 'Segoe UI', Arial, sans-serif; font-size: 10px; fill: #555; }
      .text-label { font-family: 'Segoe UI', Arial, sans-serif; font-size: 11px; font-weight: 600; fill: #333; }
      .arrow      { stroke: #BDBDBD; stroke-width: 2; fill: none; marker-end: url(#arrowhead); }
    </style>
    <marker id="arrowhead" markerWidth="10" markerHeight="10" refX="9" refY="3" orient="auto">
      <polygon points="0 0, 10 3, 0 6" fill="#BDBDBD"/>
    </marker>
  </defs>

  <!-- ══════════════════════════════════════════════════════ -->
  <!-- ROW 1 — Shell App                                     -->
  <!-- ══════════════════════════════════════════════════════ -->
  <g>
    <rect x="362" y="18" width="576" height="138" class="shell" rx="8"/>
    <text x="650" y="46"  text-anchor="middle" class="text-bold icon">🏠</text>
    <text x="650" y="68"  text-anchor="middle" class="text-title">Angular Shell App</text>
    <text x="650" y="84"  text-anchor="middle" class="text-small">Port 4200</text>
    <text x="650" y="101" text-anchor="middle" class="text-tiny">Authentication · Patient Context Sync · Navigation · Role-based Module Loader</text>
    <text x="650" y="116" text-anchor="middle" class="text-tiny">Webpack Module Federation Host · Session Management · JWT Interceptor</text>
    <!-- Admin Dashboard pill -->
    <rect x="527" y="126" width="246" height="24" class="admin" rx="5"/>
    <text x="650" y="142" text-anchor="middle" class="text-label">⚙️ Admin Dashboard  /admin  (admin role only)</text>
  </g>

  <!-- ══════════════════════════════════════════════════════ -->
  <!-- Arrows Shell → Modules                                -->
  <!-- ══════════════════════════════════════════════════════ -->
  <g>
    <path d="M 430 156 L  90 250" class="arrow"/>
    <path d="M 480 156 L 240 250" class="arrow"/>
    <path d="M 540 156 L 390 250" class="arrow"/>
    <path d="M 650 156 L 540 250" class="arrow"/>
    <path d="M 760 156 L 690 250" class="arrow"/>
    <path d="M 820 156 L 860 250" class="arrow"/>
    <path d="M 870 156 L 1025 250" class="arrow"/>
  </g>

  <!-- ══════════════════════════════════════════════════════ -->
  <!-- ROW 2 — Micro-Frontend Modules (7)                    -->
  <!-- ══════════════════════════════════════════════════════ -->

  <!-- Demographics -->
  <g>
    <rect x="20"  y="250" width="140" height="72" class="module" rx="7"/>
    <text x="90"  y="274" text-anchor="middle" class="text-bold icon">👥</text>
    <text x="90"  y="293" text-anchor="middle" class="text-title">Demographics</text>
    <text x="90"  y="308" text-anchor="middle" class="text-tiny">Port 4201 · Angular</text>
  </g>

  <!-- Vitals -->
  <g>
    <rect x="170" y="250" width="140" height="72" class="module" rx="7"/>
    <text x="240" y="274" text-anchor="middle" class="text-bold icon">❤️</text>
    <text x="240" y="293" text-anchor="middle" class="text-title">Vitals</text>
    <text x="240" y="308" text-anchor="middle" class="text-tiny">Port 4202 · Angular</text>
  </g>

  <!-- Labs -->
  <g>
    <rect x="320" y="250" width="140" height="72" class="module" rx="7"/>
    <text x="390" y="274" text-anchor="middle" class="text-bold icon">🧪</text>
    <text x="390" y="293" text-anchor="middle" class="text-title">Labs</text>
    <text x="390" y="308" text-anchor="middle" class="text-tiny">Port 4203 · Angular</text>
  </g>

  <!-- Medications -->
  <g>
    <rect x="470" y="250" width="140" height="72" class="module" rx="7"/>
    <text x="540" y="274" text-anchor="middle" class="text-bold icon">💊</text>
    <text x="540" y="293" text-anchor="middle" class="text-title">Medications</text>
    <text x="540" y="308" text-anchor="middle" class="text-tiny">Port 4204 · Angular</text>
  </g>

  <!-- Visits -->
  <g>
    <rect x="620" y="250" width="140" height="72" class="module" rx="7"/>
    <text x="690" y="274" text-anchor="middle" class="text-bold icon">📅</text>
    <text x="690" y="293" text-anchor="middle" class="text-title">Visits</text>
    <text x="690" y="308" text-anchor="middle" class="text-tiny">Port 4205 · Angular</text>
  </g>

  <!-- Care Team -->
  <g>
    <rect x="790" y="250" width="140" height="72" class="module" rx="7"/>
    <text x="860" y="274" text-anchor="middle" class="text-bold icon">👨‍⚕️</text>
    <text x="860" y="293" text-anchor="middle" class="text-title">Care Team</text>
    <text x="860" y="308" text-anchor="middle" class="text-tiny">Port 4206 · Angular</text>
  </g>

  <!-- Procedures (React) -->
  <g>
    <rect x="950" y="250" width="150" height="72" class="react-mod" rx="7"/>
    <text x="1025" y="274" text-anchor="middle" class="text-bold icon">🏥</text>
    <text x="1025" y="293" text-anchor="middle" class="text-title">Procedures ⭐</text>
    <text x="1025" y="308" text-anchor="middle" class="text-tiny">Port 4207 · React 18</text>
  </g>

  <!-- ══════════════════════════════════════════════════════ -->
  <!-- Arrows Modules → API Gateway                          -->
  <!-- ══════════════════════════════════════════════════════ -->
  <g>
    <path d="M  90 322 L 600 438" class="arrow"/>
    <path d="M 240 322 L 615 438" class="arrow"/>
    <path d="M 390 322 L 628 438" class="arrow"/>
    <path d="M 540 322 L 643 438" class="arrow"/>
    <path d="M 690 322 L 657 438" class="arrow"/>
    <path d="M 860 322 L 672 438" class="arrow"/>
    <path d="M 1025 322 L 690 438" class="arrow"/>
  </g>

  <!-- ══════════════════════════════════════════════════════ -->
  <!-- ROW 3 — API Gateway                                   -->
  <!-- ══════════════════════════════════════════════════════ -->
  <g>
    <rect x="352" y="438" width="596" height="96" class="gateway" rx="10"/>
    <text x="650" y="464" text-anchor="middle" class="text-bold icon">🌐</text>
    <text x="650" y="486" text-anchor="middle" class="text-title">API Gateway</text>
    <text x="650" y="503" text-anchor="middle" class="text-small">Port 5000 · Single entry point for all /api/* traffic</text>
    <text x="650" y="519" text-anchor="middle" class="text-tiny">JWT validation · Request routing · /health/deep · Swagger /api-docs</text>
  </g>

  <!-- ══════════════════════════════════════════════════════ -->
  <!-- Arrows Gateway → Domain Services                      -->
  <!-- ══════════════════════════════════════════════════════ -->
  <g>
    <path d="M 432 534 L 115 630" class="arrow"/>
    <path d="M 500 534 L 265 630" class="arrow"/>
    <path d="M 570 534 L 415 630" class="arrow"/>
    <path d="M 640 534 L 575 630" class="arrow"/>
    <path d="M 710 534 L 725 630" class="arrow"/>
    <path d="M 780 534 L 875 630" class="arrow"/>
    <path d="M 850 534 L 1025 630" class="arrow"/>
    <path d="M 868 534 L 1175 630" class="arrow"/>
  </g>

  <!-- ══════════════════════════════════════════════════════ -->
  <!-- ROW 4 — Domain Services (8) — all on same line        -->
  <!-- ══════════════════════════════════════════════════════ -->

  <!-- Auth Service -->
  <g>
    <rect x="20"  y="630" width="140" height="76" class="service" rx="7"/>
    <text x="90"  y="654" text-anchor="middle" class="text-bold icon">🔐</text>
    <text x="90"  y="674" text-anchor="middle" class="text-title">Auth Service</text>
    <text x="90"  y="688" text-anchor="middle" class="text-tiny">Port 5001</text>
    <text x="90"  y="700" text-anchor="middle" class="text-tiny">Login · Refresh · Logout</text>
  </g>

  <!-- Patient Service -->
  <g>
    <rect x="170" y="630" width="140" height="76" class="service" rx="7"/>
    <text x="240" y="654" text-anchor="middle" class="text-bold icon">🏷️</text>
    <text x="240" y="674" text-anchor="middle" class="text-title">Patient Service</text>
    <text x="240" y="688" text-anchor="middle" class="text-tiny">Port 5002</text>
    <text x="240" y="700" text-anchor="middle" class="text-tiny">Patient CRUD · Search</text>
  </g>

  <!-- Vitals Service -->
  <g>
    <rect x="320" y="630" width="140" height="76" class="service" rx="7"/>
    <text x="390" y="654" text-anchor="middle" class="text-bold icon">❤️</text>
    <text x="390" y="674" text-anchor="middle" class="text-title">Vitals Service</text>
    <text x="390" y="688" text-anchor="middle" class="text-tiny">Port 5003</text>
    <text x="390" y="700" text-anchor="middle" class="text-tiny">Vital signs</text>
  </g>

  <!-- Labs Service -->
  <g>
    <rect x="470" y="630" width="140" height="76" class="service" rx="7"/>
    <text x="540" y="654" text-anchor="middle" class="text-bold icon">🧪</text>
    <text x="540" y="674" text-anchor="middle" class="text-title">Labs Service</text>
    <text x="540" y="688" text-anchor="middle" class="text-tiny">Port 5004</text>
    <text x="540" y="700" text-anchor="middle" class="text-tiny">Lab results</text>
  </g>

  <!-- Medications Service -->
  <g>
    <rect x="620" y="630" width="140" height="76" class="service" rx="7"/>
    <text x="690" y="654" text-anchor="middle" class="text-bold icon">💊</text>
    <text x="690" y="674" text-anchor="middle" class="text-title">Meds Service</text>
    <text x="690" y="688" text-anchor="middle" class="text-tiny">Port 5005</text>
    <text x="690" y="700" text-anchor="middle" class="text-tiny">Medications</text>
  </g>

  <!-- Visits Service -->
  <g>
    <rect x="770" y="630" width="140" height="76" class="service" rx="7"/>
    <text x="840" y="654" text-anchor="middle" class="text-bold icon">📅</text>
    <text x="840" y="674" text-anchor="middle" class="text-title">Visits Service</text>
    <text x="840" y="688" text-anchor="middle" class="text-tiny">Port 5006</text>
    <text x="840" y="700" text-anchor="middle" class="text-tiny">Clinical encounters</text>
  </g>

  <!-- Care Team Service -->
  <g>
    <rect x="920" y="630" width="150" height="76" class="service" rx="7"/>
    <text x="995" y="654" text-anchor="middle" class="text-bold icon">👨‍⚕️</text>
    <text x="995" y="674" text-anchor="middle" class="text-title">Care Team Svc</text>
    <text x="995" y="688" text-anchor="middle" class="text-tiny">Port 5007</text>
    <text x="995" y="700" text-anchor="middle" class="text-tiny">Team management</text>
  </g>

  <!-- Registry Service — same row as all other services -->
  <g>
    <rect x="1080" y="630" width="190" height="76" class="reg-svc" rx="7"/>
    <text x="1175" y="654" text-anchor="middle" class="text-bold icon">📋</text>
    <text x="1175" y="674" text-anchor="middle" class="text-title">Registry Service</text>
    <text x="1175" y="688" text-anchor="middle" class="text-tiny">Port 5100</text>
    <text x="1175" y="700" text-anchor="middle" class="text-tiny">Plugin registry · Admin API</text>
  </g>

  <!-- ══════════════════════════════════════════════════════ -->
  <!-- Arrows Services → MongoDB                             -->
  <!-- ══════════════════════════════════════════════════════ -->
  <g>
    <path d="M  90 706 L 560 800" class="arrow"/>
    <path d="M 240 706 L 585 800" class="arrow"/>
    <path d="M 390 706 L 610 800" class="arrow"/>
    <path d="M 540 706 L 630 800" class="arrow"/>
    <path d="M 690 706 L 650 800" class="arrow"/>
    <path d="M 840 706 L 668 800" class="arrow"/>
    <path d="M 995 706 L 692 800" class="arrow"/>
    <path d="M 1175 706 L 718 800" class="arrow"/>
  </g>

  <!-- ══════════════════════════════════════════════════════ -->
  <!-- ROW 5 — MongoDB                                       -->
  <!-- ══════════════════════════════════════════════════════ -->
  <g>
    <rect x="480" y="800" width="340" height="100" class="database" rx="8"/>
    <text x="650" y="830"  text-anchor="middle" class="text-bold icon">🗄️</text>
    <text x="650" y="852"  text-anchor="middle" class="text-title">MongoDB</text>
    <text x="650" y="868"  text-anchor="middle" class="text-small">Port 27017</text>
    <text x="650" y="884"  text-anchor="middle" class="text-tiny">patients · vitals · labs · medications · visits · care-team · modules</text>
  </g>

  <!-- ══════════════════════════════════════════════════════ -->
  <!-- Legend                                               -->
  <!-- ══════════════════════════════════════════════════════ -->
  <g>
    <rect x="20" y="926" width="1260" height="100" rx="8" fill="#F5F5F5" stroke="#E0E0E0" stroke-width="1"/>
    <text x="40" y="948" class="text-label">Legend</text>

    <rect x="40"  y="957" width="16" height="16" class="shell" rx="3"/>
    <text x="62"  y="969" class="text-tiny">Shell App</text>

    <rect x="160" y="957" width="16" height="16" class="admin" rx="3"/>
    <text x="182" y="969" class="text-tiny">Admin Dashboard</text>

    <rect x="320" y="957" width="16" height="16" class="module" rx="3"/>
    <text x="342" y="969" class="text-tiny">Angular MF Module</text>

    <rect x="490" y="957" width="16" height="16" class="react-mod" rx="3"/>
    <text x="512" y="969" class="text-tiny">React MF Module ⭐</text>

    <rect x="660" y="957" width="16" height="16" class="gateway" rx="3"/>
    <text x="682" y="969" class="text-tiny">API Gateway</text>

    <rect x="800" y="957" width="16" height="16" class="service" rx="3"/>
    <text x="822" y="969" class="text-tiny">Backend Microservice</text>

    <rect x="990" y="957" width="16" height="16" class="reg-svc" rx="3"/>
    <text x="1012" y="969" class="text-tiny">Registry Service</text>

    <rect x="1140" y="957" width="16" height="16" class="database" rx="3"/>
    <text x="1162" y="969" class="text-tiny">Database</text>

    <text x="40" y="993" class="text-tiny">Frontend: Shell 4200 · Demographics 4201 · Vitals 4202 · Labs 4203 · Medications 4204 · Visits 4205 · Care Team 4206 · Procedures 4207</text>
    <text x="40" y="1010" class="text-tiny">Backend: API Gateway 5000 · Auth 5001 · Patient 5002 · Vitals 5003 · Labs 5004 · Medications 5005 · Visits 5006 · Care Team 5007 · Registry 5100 · MongoDB 27017</text>
  </g>
</svg>
